<svg width="24" height="24" viewBox="0 0 24 24" fill="none" xmlns="http://www.w3.org/2000/svg">
<path fill-rule="evenodd" clip-rule="evenodd" d="M16 10C16 13.3137 13.3137 16 10 16C6.68629 16 4 13.3137 4 10C4 6.68629 6.68629 4 10 4C13.3137 4 16 6.68629 16 10ZM18 10C18 14.4183 14.4183 18 10 18C5.58172 18 2 14.4183 2 10C2 5.58172 5.58172 2 10 2C14.4183 2 18 5.58172 18 10ZM17.4142 16L16 17.4142L20.2426 21.6568C20.6332 22.0473 21.2663 22.0473 21.6569 21.6568C22.0474 21.2663 22.0474 20.6331 21.6569 20.2426L17.4142 16Z" fill="#A09FC3"/>
</svg>
